# xmcd
#
# Track frame offsets: 
#        150
#        39612
#        53969
#        66682
#        79088
#        94866
#        106213
#        118375
#        132787
#        148481
#        158686
#        169887
#        184992
#        185456
#        196507
#        211532
#        224072
#        224412
#        238201
#
# Disc length: 3901 seconds
#
# Revision: 2
# Processed by: cddbd v1.5.2PL0 Copyright (c) Steve Scherf et al.
# Submitted via: ExactAudioCopyFreeDBPlugin 1.0
#
DISCID=2d0f3b13
DTITLE=Various Artist - CD 18 Drums Monster
DYEAR=2006
DGENRE=Jazz
TTITLE0=Gene Krupa with Benny Goodman Orch. - Sing Sing Sing
TTITLE1=Lionel Hampton - Drum Stomp
TTITLE2=Jo Jones with Count Basic Orch. - Swinging The Blues
TTITLE3=Ray Bauduc with Bob Crosby Orcj. - The Big Crash From China
TTITLE4=Kaiser Marshall with Louis Armstrong Orch. - Knockin A Jug
TTITLE5=Chick Webb - Clap Hand ! Here Comes  Charley
TTITLE6=Kenny Clarke with Charlie Parker - Si Si
TTITLE7=Lionel Hampton - Hamptom Stomp
TTITLE8=Buddy Rich - Bloomdido
TTITLE9=Gene Krupa - Wire Brush Stomp
TTITLE10=Cozy Cole with Cab Callway Orch. - Ratamacue
TTITLE11=Roy Haynes - My Heart Belong To Daddy
TTITLE12=Chick Webb - Liza
TTITLE13=Chick Webb - Liza
TTITLE14=Max Roach with Charlie Parker - Diverse-Time X
TTITLE15=Ray Bauduc - Big Noise from Winnetka
TTITLE16=Art Blakey - Oo Bop Sh'bam
TTITLE17=Art Blakey - Oo Bop Sh'bam
TTITLE18=Alvin Stoller with Oscar Peterson - The Astaire Blues
EXTD=YEAR: 2006
EXTT0=
EXTT1=
EXTT2=
EXTT3=
EXTT4=
EXTT5=
EXTT6=
EXTT7=
EXTT8=
EXTT9=
EXTT10=
EXTT11=
EXTT12=
EXTT13=
EXTT14=
EXTT15=
EXTT16=
EXTT17=
EXTT18=
PLAYORDER=
